<?xml version="1.0" standalone="no"?>
<!DOCTYPE svg PUBLIC "-//W3C//DTD SVG 20010904//EN"
 "http://www.w3.org/TR/2001/REC-SVG-20010904/DTD/svg10.dtd">
<svg version="1.0" xmlns="http://www.w3.org/2000/svg"
 width="16.000000pt" height="16.000000pt" viewBox="0 0 16.000000 16.000000"
 preserveAspectRatio="xMidYMid meet">
<metadata>
Created by potrace 1.11, written by Peter Selinger 2001-2013
</metadata>
<g transform="translate(0.000000,16.000000) scale(0.006154,-0.006154)"
fill="#000000" stroke="none">
<path d="M265 2586 c-108 -34 -186 -102 -232 -201 l-28 -60 0 -1020 0 -1020
28 -60 c36 -78 104 -146 181 -182 l61 -28 1025 0 1025 0 61 28 c77 36 145 104
181 182 l28 60 0 1020 0 1020 -28 61 c-36 77 -104 145 -182 181 l-60 28 -1010
2 c-797 1 -1018 -1 -1050 -11z m1633 -410 c70 -32 123 -85 156 -155 18 -39 21
-63 20 -166 -1 -103 -5 -132 -29 -205 -54 -166 -139 -311 -252 -431 -125 -132
-265 -219 -355 -219 -86 0 -100 48 -42 144 58 97 109 205 137 291 67 203 113
477 89 529 -15 34 -30 33 -84 -9 -130 -102 -304 -381 -383 -615 -53 -159 -69
-248 -69 -405 -1 -199 20 -235 138 -235 30 0 82 9 117 20 94 29 323 146 489
249 153 96 191 111 217 90 40 -34 -44 -253 -135 -351 -140 -150 -581 -328
-809 -328 -217 1 -420 127 -517 321 -74 147 -84 291 -32 469 139 479 521 873
986 1017 63 19 93 23 185 20 96 -2 118 -6 173 -31z"/>
</g>
</svg>
